<?xml version="1.0" encoding="UTF-8"?>
<svg width="28px" height="34px" viewBox="0 0 28 34" version="1.1" xmlns="http://www.w3.org/2000/svg" xmlns:xlink="http://www.w3.org/1999/xlink">
    <!-- Generator: Sketch 41 (35326) - http://www.bohemiancoding.com/sketch -->
    <title>discord-logo</title>
    <desc>Created with Sketch.</desc>
    <defs></defs>
    <g id="Welcome" stroke="none" stroke-width="1" fill="none" fill-rule="evenodd">
        <g id="Home" transform="translate(-496.000000, -313.000000)" fill="#FFFFFF">
            <g id="Group" transform="translate(478.000000, 299.000000)">
                <g id="discord-logo" transform="translate(18.000000, 14.000000)">
                    <g id="Layer_1">
                        <path d="M11.104,14.263 C10.192,14.263 9.472,15.113 9.472,16.15 C9.472,17.187 10.208,18.037 11.104,18.037 C12.016,18.037 12.736,17.187 12.736,16.15 C12.752,15.113 12.016,14.263 11.104,14.263 Z M16.944,14.263 C16.032,14.263 15.312,15.113 15.312,16.15 C15.312,17.187 16.048,18.037 16.944,18.037 C17.856,18.037 18.576,17.187 18.576,16.15 C18.576,15.113 17.856,14.263 16.944,14.263 Z" id="Shape"></path>
                        <path d="M24.72,0 L3.28,0 C1.472,0 0,1.564 0,3.502 L0,26.486 C0,28.424 1.472,29.988 3.28,29.988 L21.424,29.988 L20.576,26.843 L22.624,28.866 L24.56,30.77 L28,34 L28,3.502 C28,1.564 26.528,0 24.72,0 Z M18.544,22.202 C18.544,22.202 17.968,21.471 17.488,20.825 C19.584,20.196 20.384,18.802 20.384,18.802 C19.728,19.261 19.104,19.584 18.544,19.805 C17.744,20.162 16.976,20.4 16.224,20.536 C14.688,20.842 13.28,20.757 12.08,20.519 C11.168,20.332 10.384,20.06 9.728,19.788 C9.36,19.635 8.96,19.448 8.56,19.21 C8.512,19.176 8.464,19.159 8.416,19.125 C8.384,19.108 8.368,19.091 8.352,19.074 C8.064,18.904 7.904,18.785 7.904,18.785 C7.904,18.785 8.672,20.145 10.704,20.791 C10.224,21.437 9.632,22.202 9.632,22.202 C6.096,22.083 4.752,19.618 4.752,19.618 C4.752,14.144 7.056,9.707 7.056,9.707 C9.36,7.871 11.552,7.922 11.552,7.922 L11.712,8.126 C8.832,9.01 7.504,10.353 7.504,10.353 C7.504,10.353 7.856,10.149 8.448,9.86 C10.16,9.061 11.52,8.84 12.08,8.789 C12.176,8.772 12.256,8.755 12.352,8.755 C13.328,8.619 14.432,8.585 15.584,8.721 C17.104,8.908 18.736,9.384 20.4,10.353 C20.4,10.353 19.136,9.078 16.416,8.194 L16.64,7.922 C16.64,7.922 18.832,7.871 21.136,9.707 C21.136,9.707 23.44,14.144 23.44,19.618 C23.44,19.618 22.08,22.083 18.544,22.202 L18.544,22.202 Z" id="Shape"></path>
                    </g>
                </g>
            </g>
        </g>
    </g>
</svg>